<mxfile host="app.diagrams.net" agent="Mozilla/5.0 (Windows NT 10.0; Win64; x64) AppleWebKit/537.36 (KHTML, like Gecko) Chrome/137.0.0.0 Safari/537.36 Edg/137.0.0.0" version="27.1.4">
  <diagram name="PÃ¡gina-1" id="xY44_kegHmr3DNZRBy6s">
    <mxGraphModel dx="994" dy="661" grid="1" gridSize="10" guides="1" tooltips="1" connect="1" arrows="1" fold="1" page="1" pageScale="1" pageWidth="827" pageHeight="1169" math="0" shadow="0" adaptiveColors="none">
      <root>
        <mxCell id="0" />
        <mxCell id="1" parent="0" />
        <mxCell id="eo_KO0FBfdUoMX1b3jGh-1" value="" style="fontStyle=1;align=center;verticalAlign=middle;childLayout=stackLayout;horizontal=1;horizontalStack=0;resizeParent=1;resizeParentMax=0;resizeLast=0;marginBottom=0;rounded=1;absoluteArcSize=1;arcSize=22;" parent="1" vertex="1">
          <mxGeometry x="326" y="108" width="200" height="72" as="geometry" />
        </mxCell>
        <mxCell id="eo_KO0FBfdUoMX1b3jGh-2" value="Cadastrar" style="html=1;align=center;spacing=0;verticalAlign=middle;strokeColor=none;fillColor=none;whiteSpace=wrap;" parent="eo_KO0FBfdUoMX1b3jGh-1" vertex="1">
          <mxGeometry width="200" height="20" as="geometry" />
        </mxCell>
        <mxCell id="eo_KO0FBfdUoMX1b3jGh-3" value="" style="line;strokeWidth=0.25;fillColor=none;align=left;verticalAlign=middle;spacingTop=-1;spacingLeft=3;spacingRight=3;rotatable=0;labelPosition=right;points=[];portConstraint=eastwest;" parent="eo_KO0FBfdUoMX1b3jGh-1" vertex="1">
          <mxGeometry y="20" width="200" height="8" as="geometry" />
        </mxCell>
        <mxCell id="eo_KO0FBfdUoMX1b3jGh-4" value="" style="html=1;align=left;spacing=0;spacingLeft=10;verticalAlign=middle;strokeColor=none;fillColor=none;whiteSpace=wrap;" parent="eo_KO0FBfdUoMX1b3jGh-1" vertex="1">
          <mxGeometry y="28" width="200" height="10" as="geometry" />
        </mxCell>
        <mxCell id="d8vjuGGa16Ne8SZ7zFFO-13" value="do / consultarEmail()" style="html=1;align=left;spacing=0;spacingLeft=10;verticalAlign=middle;strokeColor=none;fillColor=none;whiteSpace=wrap;" vertex="1" parent="eo_KO0FBfdUoMX1b3jGh-1">
          <mxGeometry y="38" width="200" height="14" as="geometry" />
        </mxCell>
        <mxCell id="eo_KO0FBfdUoMX1b3jGh-8" value="" style="html=1;align=left;spacing=0;spacingLeft=10;verticalAlign=middle;strokeColor=none;fillColor=none;whiteSpace=wrap;" parent="eo_KO0FBfdUoMX1b3jGh-1" vertex="1">
          <mxGeometry y="52" width="200" height="20" as="geometry" />
        </mxCell>
        <mxCell id="eo_KO0FBfdUoMX1b3jGh-9" value="" style="fontStyle=1;align=center;verticalAlign=middle;childLayout=stackLayout;horizontal=1;horizontalStack=0;resizeParent=1;resizeParentMax=0;resizeLast=0;marginBottom=0;rounded=1;absoluteArcSize=1;arcSize=22;" parent="1" vertex="1">
          <mxGeometry x="640" y="108" width="200" height="86" as="geometry" />
        </mxCell>
        <mxCell id="eo_KO0FBfdUoMX1b3jGh-10" value="RecebendoNome" style="html=1;align=center;spacing=0;verticalAlign=middle;strokeColor=none;fillColor=none;whiteSpace=wrap;" parent="eo_KO0FBfdUoMX1b3jGh-9" vertex="1">
          <mxGeometry width="200" height="20" as="geometry" />
        </mxCell>
        <mxCell id="eo_KO0FBfdUoMX1b3jGh-11" value="" style="line;strokeWidth=0.25;fillColor=none;align=left;verticalAlign=middle;spacingTop=-1;spacingLeft=3;spacingRight=3;rotatable=0;labelPosition=right;points=[];portConstraint=eastwest;" parent="eo_KO0FBfdUoMX1b3jGh-9" vertex="1">
          <mxGeometry y="20" width="200" height="8" as="geometry" />
        </mxCell>
        <mxCell id="eo_KO0FBfdUoMX1b3jGh-12" value="" style="html=1;align=left;spacing=0;spacingLeft=10;verticalAlign=middle;strokeColor=none;fillColor=none;whiteSpace=wrap;" parent="eo_KO0FBfdUoMX1b3jGh-9" vertex="1">
          <mxGeometry y="28" width="200" height="10" as="geometry" />
        </mxCell>
        <mxCell id="eo_KO0FBfdUoMX1b3jGh-14" value="entry / setEcho(off)" style="html=1;align=left;spacing=0;spacingLeft=10;verticalAlign=middle;strokeColor=none;fillColor=none;whiteSpace=wrap;" parent="eo_KO0FBfdUoMX1b3jGh-9" vertex="1">
          <mxGeometry y="38" width="200" height="14" as="geometry" />
        </mxCell>
        <mxCell id="eo_KO0FBfdUoMX1b3jGh-15" value="exit / setEcho&lt;span style=&quot;background-color: transparent; color: light-dark(rgb(0, 0, 0), rgb(255, 255, 255));&quot;&gt;(on)&lt;/span&gt;" style="html=1;align=left;spacingLeft=10;spacing=0;verticalAlign=middle;strokeColor=none;fillColor=none;whiteSpace=wrap;" parent="eo_KO0FBfdUoMX1b3jGh-9" vertex="1">
          <mxGeometry y="52" width="200" height="14" as="geometry" />
        </mxCell>
        <mxCell id="eo_KO0FBfdUoMX1b3jGh-16" value="" style="html=1;align=left;spacing=0;spacingLeft=10;verticalAlign=middle;strokeColor=none;fillColor=none;whiteSpace=wrap;" parent="eo_KO0FBfdUoMX1b3jGh-9" vertex="1">
          <mxGeometry y="66" width="200" height="20" as="geometry" />
        </mxCell>
        <mxCell id="d8vjuGGa16Ne8SZ7zFFO-31" style="edgeStyle=orthogonalEdgeStyle;rounded=0;orthogonalLoop=1;jettySize=auto;html=1;entryX=0.5;entryY=0;entryDx=0;entryDy=0;" edge="1" parent="1" source="eo_KO0FBfdUoMX1b3jGh-17" target="d8vjuGGa16Ne8SZ7zFFO-3">
          <mxGeometry relative="1" as="geometry" />
        </mxCell>
        <mxCell id="d8vjuGGa16Ne8SZ7zFFO-34" value="senhaInformada" style="edgeLabel;html=1;align=center;verticalAlign=middle;resizable=0;points=[];" vertex="1" connectable="0" parent="d8vjuGGa16Ne8SZ7zFFO-31">
          <mxGeometry x="-0.0971" y="2" relative="1" as="geometry">
            <mxPoint y="-1" as="offset" />
          </mxGeometry>
        </mxCell>
        <mxCell id="eo_KO0FBfdUoMX1b3jGh-17" value="" style="fontStyle=1;align=center;verticalAlign=middle;childLayout=stackLayout;horizontal=1;horizontalStack=0;resizeParent=1;resizeParentMax=0;resizeLast=0;marginBottom=0;rounded=1;absoluteArcSize=1;arcSize=22;" parent="1" vertex="1">
          <mxGeometry x="1018" y="109" width="200" height="86" as="geometry" />
        </mxCell>
        <mxCell id="eo_KO0FBfdUoMX1b3jGh-18" value="RecebendoSenha" style="html=1;align=center;spacing=0;verticalAlign=middle;strokeColor=none;fillColor=none;whiteSpace=wrap;" parent="eo_KO0FBfdUoMX1b3jGh-17" vertex="1">
          <mxGeometry width="200" height="20" as="geometry" />
        </mxCell>
        <mxCell id="eo_KO0FBfdUoMX1b3jGh-19" value="" style="line;strokeWidth=0.25;fillColor=none;align=left;verticalAlign=middle;spacingTop=-1;spacingLeft=3;spacingRight=3;rotatable=0;labelPosition=right;points=[];portConstraint=eastwest;" parent="eo_KO0FBfdUoMX1b3jGh-17" vertex="1">
          <mxGeometry y="20" width="200" height="8" as="geometry" />
        </mxCell>
        <mxCell id="eo_KO0FBfdUoMX1b3jGh-20" value="" style="html=1;align=left;spacing=0;spacingLeft=10;verticalAlign=middle;strokeColor=none;fillColor=none;whiteSpace=wrap;" parent="eo_KO0FBfdUoMX1b3jGh-17" vertex="1">
          <mxGeometry y="28" width="200" height="10" as="geometry" />
        </mxCell>
        <mxCell id="eo_KO0FBfdUoMX1b3jGh-22" value="entry / setEcho(off)" style="html=1;align=left;spacing=0;spacingLeft=10;verticalAlign=middle;strokeColor=none;fillColor=none;whiteSpace=wrap;" parent="eo_KO0FBfdUoMX1b3jGh-17" vertex="1">
          <mxGeometry y="38" width="200" height="14" as="geometry" />
        </mxCell>
        <mxCell id="eo_KO0FBfdUoMX1b3jGh-23" value="exit / setEcho(on)" style="html=1;align=left;spacingLeft=10;spacing=0;verticalAlign=middle;strokeColor=none;fillColor=none;whiteSpace=wrap;" parent="eo_KO0FBfdUoMX1b3jGh-17" vertex="1">
          <mxGeometry y="52" width="200" height="14" as="geometry" />
        </mxCell>
        <mxCell id="eo_KO0FBfdUoMX1b3jGh-24" value="" style="html=1;align=left;spacing=0;spacingLeft=10;verticalAlign=middle;strokeColor=none;fillColor=none;whiteSpace=wrap;" parent="eo_KO0FBfdUoMX1b3jGh-17" vertex="1">
          <mxGeometry y="66" width="200" height="20" as="geometry" />
        </mxCell>
        <mxCell id="d8vjuGGa16Ne8SZ7zFFO-17" style="edgeStyle=orthogonalEdgeStyle;rounded=0;orthogonalLoop=1;jettySize=auto;html=1;entryX=0;entryY=0.25;entryDx=0;entryDy=0;" edge="1" parent="1" source="d8vjuGGa16Ne8SZ7zFFO-1" target="d8vjuGGa16Ne8SZ7zFFO-13">
          <mxGeometry relative="1" as="geometry" />
        </mxCell>
        <mxCell id="d8vjuGGa16Ne8SZ7zFFO-20" value="enderecoEmailInformado" style="edgeLabel;html=1;align=center;verticalAlign=middle;resizable=0;points=[];" vertex="1" connectable="0" parent="d8vjuGGa16Ne8SZ7zFFO-17">
          <mxGeometry x="-0.2854" y="2" relative="1" as="geometry">
            <mxPoint x="28" y="1" as="offset" />
          </mxGeometry>
        </mxCell>
        <mxCell id="d8vjuGGa16Ne8SZ7zFFO-1" value="" style="ellipse;fillColor=strokeColor;html=1;" vertex="1" parent="1">
          <mxGeometry x="73" y="135" width="30" height="30" as="geometry" />
        </mxCell>
        <mxCell id="d8vjuGGa16Ne8SZ7zFFO-2" value="" style="fontStyle=1;align=center;verticalAlign=middle;childLayout=stackLayout;horizontal=1;horizontalStack=0;resizeParent=1;resizeParentMax=0;resizeLast=0;marginBottom=0;rounded=1;absoluteArcSize=1;arcSize=22;" vertex="1" parent="1">
          <mxGeometry x="1018" y="349" width="200" height="58" as="geometry" />
        </mxCell>
        <mxCell id="d8vjuGGa16Ne8SZ7zFFO-3" value="RegistrandoConta" style="html=1;align=center;spacing=0;verticalAlign=middle;strokeColor=none;fillColor=none;whiteSpace=wrap;" vertex="1" parent="d8vjuGGa16Ne8SZ7zFFO-2">
          <mxGeometry width="200" height="20" as="geometry" />
        </mxCell>
        <mxCell id="d8vjuGGa16Ne8SZ7zFFO-4" value="" style="line;strokeWidth=0.25;fillColor=none;align=left;verticalAlign=middle;spacingTop=-1;spacingLeft=3;spacingRight=3;rotatable=0;labelPosition=right;points=[];portConstraint=eastwest;" vertex="1" parent="d8vjuGGa16Ne8SZ7zFFO-2">
          <mxGeometry y="20" width="200" height="8" as="geometry" />
        </mxCell>
        <mxCell id="d8vjuGGa16Ne8SZ7zFFO-5" value="" style="html=1;align=left;spacing=0;spacingLeft=10;verticalAlign=middle;strokeColor=none;fillColor=none;whiteSpace=wrap;" vertex="1" parent="d8vjuGGa16Ne8SZ7zFFO-2">
          <mxGeometry y="28" width="200" height="10" as="geometry" />
        </mxCell>
        <mxCell id="d8vjuGGa16Ne8SZ7zFFO-9" value="" style="html=1;align=left;spacing=0;spacingLeft=10;verticalAlign=middle;strokeColor=none;fillColor=none;whiteSpace=wrap;" vertex="1" parent="d8vjuGGa16Ne8SZ7zFFO-2">
          <mxGeometry y="38" width="200" height="20" as="geometry" />
        </mxCell>
        <mxCell id="d8vjuGGa16Ne8SZ7zFFO-19" style="edgeStyle=orthogonalEdgeStyle;rounded=0;orthogonalLoop=1;jettySize=auto;html=1;" edge="1" parent="1" source="d8vjuGGa16Ne8SZ7zFFO-13" target="eo_KO0FBfdUoMX1b3jGh-14">
          <mxGeometry relative="1" as="geometry" />
        </mxCell>
        <mxCell id="d8vjuGGa16Ne8SZ7zFFO-21" value="emailValido" style="edgeLabel;html=1;align=center;verticalAlign=middle;resizable=0;points=[];" vertex="1" connectable="0" parent="d8vjuGGa16Ne8SZ7zFFO-19">
          <mxGeometry x="-0.1719" relative="1" as="geometry">
            <mxPoint x="6" y="-1" as="offset" />
          </mxGeometry>
        </mxCell>
        <mxCell id="d8vjuGGa16Ne8SZ7zFFO-22" style="edgeStyle=orthogonalEdgeStyle;rounded=0;orthogonalLoop=1;jettySize=auto;html=1;entryX=0;entryY=0.5;entryDx=0;entryDy=0;" edge="1" parent="1" source="eo_KO0FBfdUoMX1b3jGh-14" target="eo_KO0FBfdUoMX1b3jGh-22">
          <mxGeometry relative="1" as="geometry" />
        </mxCell>
        <mxCell id="d8vjuGGa16Ne8SZ7zFFO-23" value="nomeInformado" style="edgeLabel;html=1;align=center;verticalAlign=middle;resizable=0;points=[];" vertex="1" connectable="0" parent="d8vjuGGa16Ne8SZ7zFFO-22">
          <mxGeometry x="-0.2112" y="1" relative="1" as="geometry">
            <mxPoint x="20" y="2" as="offset" />
          </mxGeometry>
        </mxCell>
        <mxCell id="d8vjuGGa16Ne8SZ7zFFO-25" value="" style="shape=mxgraph.sysml.actFinal;html=1;verticalLabelPosition=bottom;labelBackgroundColor=#ffffff;verticalAlign=top;" vertex="1" parent="1">
          <mxGeometry x="1098" y="509" width="40" height="40" as="geometry" />
        </mxCell>
        <mxCell id="d8vjuGGa16Ne8SZ7zFFO-27" value="" style="rounded=1;whiteSpace=wrap;html=1;absoluteArcSize=1;arcSize=14;strokeWidth=2;" vertex="1" parent="1">
          <mxGeometry x="1146" y="380" width="20" height="20" as="geometry" />
        </mxCell>
        <mxCell id="d8vjuGGa16Ne8SZ7zFFO-29" style="rounded=0;orthogonalLoop=1;jettySize=auto;html=1;entryX=1;entryY=0.5;entryDx=0;entryDy=0;endArrow=none;startFill=0;" edge="1" parent="1" source="d8vjuGGa16Ne8SZ7zFFO-28" target="d8vjuGGa16Ne8SZ7zFFO-27">
          <mxGeometry relative="1" as="geometry" />
        </mxCell>
        <mxCell id="d8vjuGGa16Ne8SZ7zFFO-28" value="" style="rounded=1;whiteSpace=wrap;html=1;absoluteArcSize=1;arcSize=14;strokeWidth=2;" vertex="1" parent="1">
          <mxGeometry x="1182" y="380" width="20" height="20" as="geometry" />
        </mxCell>
        <mxCell id="d8vjuGGa16Ne8SZ7zFFO-33" style="edgeStyle=orthogonalEdgeStyle;rounded=0;orthogonalLoop=1;jettySize=auto;html=1;entryX=0.5;entryY=0;entryDx=0;entryDy=0;entryPerimeter=0;" edge="1" parent="1" source="d8vjuGGa16Ne8SZ7zFFO-9" target="d8vjuGGa16Ne8SZ7zFFO-25">
          <mxGeometry relative="1" as="geometry" />
        </mxCell>
        <mxCell id="d8vjuGGa16Ne8SZ7zFFO-36" style="edgeStyle=orthogonalEdgeStyle;rounded=0;orthogonalLoop=1;jettySize=auto;html=1;exitX=0.5;exitY=1;exitDx=0;exitDy=0;entryX=0.5;entryY=0;entryDx=0;entryDy=0;" edge="1" parent="1" source="d8vjuGGa16Ne8SZ7zFFO-53" target="d8vjuGGa16Ne8SZ7zFFO-55">
          <mxGeometry relative="1" as="geometry">
            <mxPoint x="426" y="550" as="targetPoint" />
            <mxPoint x="440" y="450" as="sourcePoint" />
          </mxGeometry>
        </mxCell>
        <mxCell id="d8vjuGGa16Ne8SZ7zFFO-37" value="senhaInformada" style="edgeLabel;html=1;align=center;verticalAlign=middle;resizable=0;points=[];" vertex="1" connectable="0" parent="d8vjuGGa16Ne8SZ7zFFO-36">
          <mxGeometry x="-0.0971" y="2" relative="1" as="geometry">
            <mxPoint y="-1" as="offset" />
          </mxGeometry>
        </mxCell>
        <mxCell id="d8vjuGGa16Ne8SZ7zFFO-45" style="edgeStyle=orthogonalEdgeStyle;rounded=0;orthogonalLoop=1;jettySize=auto;html=1;entryX=0.5;entryY=0;entryDx=0;entryDy=0;" edge="1" parent="1" source="eo_KO0FBfdUoMX1b3jGh-8" target="d8vjuGGa16Ne8SZ7zFFO-48">
          <mxGeometry relative="1" as="geometry">
            <mxPoint x="426" y="311.9999999999999" as="targetPoint" />
          </mxGeometry>
        </mxCell>
        <mxCell id="d8vjuGGa16Ne8SZ7zFFO-46" value="senhaInvalida" style="edgeLabel;html=1;align=center;verticalAlign=middle;resizable=0;points=[];" vertex="1" connectable="0" parent="d8vjuGGa16Ne8SZ7zFFO-45">
          <mxGeometry x="-0.1996" y="3" relative="1" as="geometry">
            <mxPoint as="offset" />
          </mxGeometry>
        </mxCell>
        <mxCell id="d8vjuGGa16Ne8SZ7zFFO-47" value="" style="fontStyle=1;align=center;verticalAlign=middle;childLayout=stackLayout;horizontal=1;horizontalStack=0;resizeParent=1;resizeParentMax=0;resizeLast=0;marginBottom=0;rounded=1;absoluteArcSize=1;arcSize=22;" vertex="1" parent="1">
          <mxGeometry x="326" y="320" width="200" height="86" as="geometry" />
        </mxCell>
        <mxCell id="d8vjuGGa16Ne8SZ7zFFO-48" value="RecebendoSenha" style="html=1;align=center;spacing=0;verticalAlign=middle;strokeColor=none;fillColor=none;whiteSpace=wrap;" vertex="1" parent="d8vjuGGa16Ne8SZ7zFFO-47">
          <mxGeometry width="200" height="20" as="geometry" />
        </mxCell>
        <mxCell id="d8vjuGGa16Ne8SZ7zFFO-49" value="" style="line;strokeWidth=0.25;fillColor=none;align=left;verticalAlign=middle;spacingTop=-1;spacingLeft=3;spacingRight=3;rotatable=0;labelPosition=right;points=[];portConstraint=eastwest;" vertex="1" parent="d8vjuGGa16Ne8SZ7zFFO-47">
          <mxGeometry y="20" width="200" height="8" as="geometry" />
        </mxCell>
        <mxCell id="d8vjuGGa16Ne8SZ7zFFO-50" value="" style="html=1;align=left;spacing=0;spacingLeft=10;verticalAlign=middle;strokeColor=none;fillColor=none;whiteSpace=wrap;" vertex="1" parent="d8vjuGGa16Ne8SZ7zFFO-47">
          <mxGeometry y="28" width="200" height="10" as="geometry" />
        </mxCell>
        <mxCell id="d8vjuGGa16Ne8SZ7zFFO-51" value="entry / setEcho(off)" style="html=1;align=left;spacing=0;spacingLeft=10;verticalAlign=middle;strokeColor=none;fillColor=none;whiteSpace=wrap;" vertex="1" parent="d8vjuGGa16Ne8SZ7zFFO-47">
          <mxGeometry y="38" width="200" height="14" as="geometry" />
        </mxCell>
        <mxCell id="d8vjuGGa16Ne8SZ7zFFO-52" value="exit / setEcho(on)" style="html=1;align=left;spacingLeft=10;spacing=0;verticalAlign=middle;strokeColor=none;fillColor=none;whiteSpace=wrap;" vertex="1" parent="d8vjuGGa16Ne8SZ7zFFO-47">
          <mxGeometry y="52" width="200" height="14" as="geometry" />
        </mxCell>
        <mxCell id="d8vjuGGa16Ne8SZ7zFFO-53" value="" style="html=1;align=left;spacing=0;spacingLeft=10;verticalAlign=middle;strokeColor=none;fillColor=none;whiteSpace=wrap;" vertex="1" parent="d8vjuGGa16Ne8SZ7zFFO-47">
          <mxGeometry y="66" width="200" height="20" as="geometry" />
        </mxCell>
        <mxCell id="d8vjuGGa16Ne8SZ7zFFO-54" value="" style="fontStyle=1;align=center;verticalAlign=middle;childLayout=stackLayout;horizontal=1;horizontalStack=0;resizeParent=1;resizeParentMax=0;resizeLast=0;marginBottom=0;rounded=1;absoluteArcSize=1;arcSize=22;" vertex="1" parent="1">
          <mxGeometry x="326" y="490" width="200" height="72" as="geometry" />
        </mxCell>
        <mxCell id="d8vjuGGa16Ne8SZ7zFFO-55" value="ValidarSenha" style="html=1;align=center;spacing=0;verticalAlign=middle;strokeColor=none;fillColor=none;whiteSpace=wrap;" vertex="1" parent="d8vjuGGa16Ne8SZ7zFFO-54">
          <mxGeometry width="200" height="20" as="geometry" />
        </mxCell>
        <mxCell id="d8vjuGGa16Ne8SZ7zFFO-56" value="" style="line;strokeWidth=0.25;fillColor=none;align=left;verticalAlign=middle;spacingTop=-1;spacingLeft=3;spacingRight=3;rotatable=0;labelPosition=right;points=[];portConstraint=eastwest;" vertex="1" parent="d8vjuGGa16Ne8SZ7zFFO-54">
          <mxGeometry y="20" width="200" height="8" as="geometry" />
        </mxCell>
        <mxCell id="d8vjuGGa16Ne8SZ7zFFO-57" value="" style="html=1;align=left;spacing=0;spacingLeft=10;verticalAlign=middle;strokeColor=none;fillColor=none;whiteSpace=wrap;" vertex="1" parent="d8vjuGGa16Ne8SZ7zFFO-54">
          <mxGeometry y="28" width="200" height="10" as="geometry" />
        </mxCell>
        <mxCell id="d8vjuGGa16Ne8SZ7zFFO-58" value="do / validarSenha()" style="html=1;align=left;spacing=0;spacingLeft=10;verticalAlign=middle;strokeColor=none;fillColor=none;whiteSpace=wrap;" vertex="1" parent="d8vjuGGa16Ne8SZ7zFFO-54">
          <mxGeometry y="38" width="200" height="14" as="geometry" />
        </mxCell>
        <mxCell id="d8vjuGGa16Ne8SZ7zFFO-59" value="" style="html=1;align=left;spacing=0;spacingLeft=10;verticalAlign=middle;strokeColor=none;fillColor=none;whiteSpace=wrap;" vertex="1" parent="d8vjuGGa16Ne8SZ7zFFO-54">
          <mxGeometry y="52" width="200" height="20" as="geometry" />
        </mxCell>
        <mxCell id="d8vjuGGa16Ne8SZ7zFFO-60" value="" style="shape=mxgraph.sysml.actFinal;html=1;verticalLabelPosition=bottom;labelBackgroundColor=#ffffff;verticalAlign=top;" vertex="1" parent="1">
          <mxGeometry x="406" y="640" width="40" height="40" as="geometry" />
        </mxCell>
        <mxCell id="d8vjuGGa16Ne8SZ7zFFO-61" style="edgeStyle=orthogonalEdgeStyle;rounded=0;orthogonalLoop=1;jettySize=auto;html=1;exitX=0.5;exitY=1;exitDx=0;exitDy=0;entryX=0.5;entryY=0;entryDx=0;entryDy=0;entryPerimeter=0;" edge="1" parent="1" source="d8vjuGGa16Ne8SZ7zFFO-59" target="d8vjuGGa16Ne8SZ7zFFO-60">
          <mxGeometry relative="1" as="geometry" />
        </mxCell>
        <mxCell id="d8vjuGGa16Ne8SZ7zFFO-62" value="Diagrama de Maquina de Estado Realizar Cadastro e Login&amp;nbsp;" style="shape=umlFrame;whiteSpace=wrap;html=1;pointerEvents=0;recursiveResize=0;container=1;collapsible=0;width=370;height=19;" vertex="1" parent="1">
          <mxGeometry x="20" y="51" width="1340" height="639" as="geometry" />
        </mxCell>
      </root>
    </mxGraphModel>
  </diagram>
</mxfile>
